<svg width="855" height="855" viewBox="0 0 855 855" fill="none" xmlns="http://www.w3.org/2000/svg">
<path d="M4 851H851C739.296 739.084 427.5 596.646 427.5 660.234C427.5 806.367 270.158 821.403 126.692 835.112L126.689 835.112C123.951 835.374 121.218 835.635 118.49 835.897C77.5815 839.821 38.0783 843.84 4 851Z" fill="#E3C4AD"/>
<path d="M851 9C851 6.23858 848.761 4 846 4H427.5L639.25 427.5H846C848.761 427.5 851 425.261 851 422.5V9Z" fill="#A07250"/>
<path fill-rule="evenodd" clip-rule="evenodd" d="M427.5 4L4 851C38.0783 843.84 77.5815 839.821 118.49 835.897C121.218 835.635 123.951 835.374 126.689 835.112L126.692 835.112C270.158 821.403 427.5 806.367 427.5 660.234C427.5 596.646 739.296 739.084 851 851L639.25 427.5L427.5 4ZM427.5 491.667C462.938 491.667 491.667 462.938 491.667 427.5C491.667 392.062 462.938 363.333 427.5 363.333C392.062 363.333 363.333 392.062 363.333 427.5C363.333 462.938 392.062 491.667 427.5 491.667Z" fill="#DCA780"/>
<path d="M427.5 4L4 851M427.5 4H846C848.761 4 851 6.23858 851 9V422.5C851 425.261 848.761 427.5 846 427.5H639.25M427.5 4L639.25 427.5M851 851H4M851 851C739.296 739.084 427.5 596.646 427.5 660.234C427.5 806.367 270.158 821.403 126.692 835.112L126.689 835.112C123.951 835.374 121.218 835.635 118.49 835.897C77.5815 839.821 38.0783 843.84 4 851M851 851L639.25 427.5M491.667 427.5C491.667 462.938 462.938 491.667 427.5 491.667C392.062 491.667 363.333 462.938 363.333 427.5C363.333 392.062 392.062 363.333 427.5 363.333C462.938 363.333 491.667 392.062 491.667 427.5Z" stroke="#664100" stroke-width="8" stroke-miterlimit="1"/>
</svg>
